<svg width="15" height="14" viewBox="0 0 15 14" fill="none" xmlns="http://www.w3.org/2000/svg">
<path d="M3.13342 2.4499C3.13342 2.17143 3.24405 1.90435 3.44096 1.70744C3.63787 1.51053 3.90495 1.3999 4.18342 1.3999H9.08342C9.3619 1.3999 9.62897 1.51053 9.82588 1.70744C10.0228 1.90435 10.1334 2.17143 10.1334 2.4499V6.3153C9.23686 6.39717 8.39732 6.79059 7.76071 7.42719C7.12411 8.0638 6.73069 8.90334 6.64882 9.7999H5.58342C5.4906 9.7999 5.40157 9.83678 5.33594 9.90242C5.2703 9.96805 5.23342 10.0571 5.23342 10.1499C5.23342 10.2427 5.2703 10.3318 5.33594 10.3974C5.40157 10.463 5.4906 10.4999 5.58342 10.4999H6.64882C6.71821 11.2712 7.01962 12.0033 7.51332 12.5999H4.18342C3.90495 12.5999 3.63787 12.4893 3.44096 12.2924C3.24405 12.0955 3.13342 11.8284 3.13342 11.5499V2.4499ZM10.4834 13.2999C11.3189 13.2999 12.1201 12.968 12.7108 12.3773C13.3015 11.7865 13.6334 10.9853 13.6334 10.1499C13.6334 9.31447 13.3015 8.51326 12.7108 7.92252C12.1201 7.33178 11.3189 6.9999 10.4834 6.9999C9.64799 6.9999 8.84678 7.33178 8.25604 7.92252C7.6653 8.51326 7.33342 9.31447 7.33342 10.1499C7.33342 10.9853 7.6653 11.7865 8.25604 12.3773C8.84678 12.968 9.64799 13.2999 10.4834 13.2999ZM12.1312 9.3477L10.0312 11.4477C9.99871 11.4803 9.96009 11.5062 9.91757 11.5238C9.87504 11.5414 9.82946 11.5505 9.78342 11.5505C9.73739 11.5505 9.6918 11.5414 9.64928 11.5238C9.60676 11.5062 9.56813 11.4803 9.53562 11.4477L8.83562 10.7477C8.7699 10.682 8.73298 10.5928 8.73298 10.4999C8.73298 10.407 8.7699 10.3178 8.83562 10.2521C8.90134 10.1864 8.99048 10.1495 9.08342 10.1495C9.17637 10.1495 9.2655 10.1864 9.33122 10.2521L9.78342 10.705L11.6356 8.8521C11.7013 8.78638 11.7905 8.74946 11.8834 8.74946C11.9764 8.74946 12.0655 8.78638 12.1312 8.8521C12.1969 8.91782 12.2339 9.00696 12.2339 9.0999C12.2339 9.19285 12.1969 9.28198 12.1312 9.3477Z" fill="white"/>
</svg>
