<svg width="13" height="10" viewBox="0 0 13 10" fill="none" xmlns="http://www.w3.org/2000/svg">
<path d="M11.3784 0.121582H1.62147C0.950683 0.121582 0.407954 0.670409 0.407954 1.3412L0.401855 8.65889C0.401855 9.32968 0.950683 9.87851 1.62147 9.87851H11.3784C12.0492 9.87851 12.598 9.32968 12.598 8.65889V1.3412C12.598 0.670409 12.0492 0.121582 11.3784 0.121582ZM11.1345 2.71327L6.82313 5.40862C6.62799 5.53058 6.37187 5.53058 6.17674 5.40862L1.86539 2.71327C1.80425 2.67894 1.7507 2.63256 1.708 2.57695C1.66529 2.52133 1.63432 2.45762 1.61694 2.38968C1.59957 2.32175 1.59617 2.25099 1.60693 2.1817C1.6177 2.11241 1.64241 2.04602 1.67957 1.98656C1.71674 1.92709 1.76558 1.87579 1.82315 1.83575C1.88072 1.79571 1.94581 1.76777 2.01449 1.75361C2.08317 1.73945 2.15401 1.73938 2.22271 1.7534C2.29142 1.76741 2.35657 1.79522 2.41422 1.83514L6.49993 4.39024L10.5856 1.83514C10.6433 1.79522 10.7084 1.76741 10.7772 1.7534C10.8459 1.73938 10.9167 1.73945 10.9854 1.75361C11.0541 1.76777 11.1192 1.79571 11.1767 1.83575C11.2343 1.87579 11.2831 1.92709 11.3203 1.98656C11.3575 2.04602 11.3822 2.11241 11.3929 2.1817C11.4037 2.25099 11.4003 2.32175 11.3829 2.38968C11.3656 2.45762 11.3346 2.52133 11.2919 2.57695C11.2492 2.63256 11.1956 2.67894 11.1345 2.71327Z" fill="white"/>
</svg>
