<svg width="12" height="15" viewBox="0 0 12 15" fill="none" xmlns="http://www.w3.org/2000/svg">
<path d="M6.35766 0.281006C4.8995 0.282726 3.50155 0.862741 2.47048 1.89382C1.4394 2.9249 0.859384 4.32284 0.857664 5.78101C0.855918 6.97262 1.24515 8.1319 1.96566 9.08101C1.96566 9.08101 2.11566 9.27851 2.14016 9.30701L6.35766 14.281L10.5772 9.30451C10.5992 9.27801 10.7497 9.08101 10.7497 9.08101L10.7502 9.07951C11.4703 8.13081 11.8594 6.97207 11.8577 5.78101C11.8559 4.32284 11.2759 2.9249 10.2449 1.89382C9.21377 0.862741 7.81583 0.282726 6.35766 0.281006ZM6.35766 7.78101C5.9621 7.78101 5.57542 7.66371 5.24652 7.44394C4.91763 7.22418 4.66128 6.91183 4.50991 6.54637C4.35853 6.18092 4.31892 5.77879 4.39609 5.39083C4.47326 5.00286 4.66375 4.6465 4.94345 4.36679C5.22316 4.08709 5.57952 3.89661 5.96748 3.81944C6.35545 3.74226 6.75758 3.78187 7.12303 3.93325C7.48848 4.08462 7.80084 4.34097 8.0206 4.66987C8.24037 4.99876 8.35766 5.38544 8.35766 5.78101C8.357 6.31124 8.14608 6.81956 7.77115 7.19449C7.39622 7.56942 6.88789 7.78034 6.35766 7.78101Z" fill="white"/>
</svg>
