<svg width="13" height="14" viewBox="0 0 13 14" fill="none" xmlns="http://www.w3.org/2000/svg">
<path d="M12.3446 2.62251L10.6806 0.96001C10.5632 0.842109 10.4237 0.748563 10.27 0.684745C10.1164 0.620927 9.95164 0.588095 9.78527 0.588135C9.4462 0.588135 9.12745 0.720947 8.88839 0.96001L7.09777 2.75063C6.97987 2.86802 6.88632 3.00754 6.8225 3.16119C6.75868 3.31483 6.72585 3.47958 6.72589 3.64595C6.72589 3.98501 6.8587 4.30376 7.09777 4.54282L8.40714 5.8522C8.10065 6.52776 7.67452 7.14233 7.14933 7.66626C6.62546 8.19273 6.01093 8.6204 5.33527 8.92876L4.02589 7.61938C3.90851 7.50148 3.76898 7.40794 3.61534 7.34412C3.46169 7.2803 3.29695 7.24747 3.13058 7.24751C2.79152 7.24751 2.47277 7.38032 2.2337 7.61938L0.441517 9.40845C0.323472 9.52605 0.229845 9.66583 0.166024 9.81975C0.102203 9.97367 0.0694475 10.1387 0.069642 10.3053C0.069642 10.6444 0.202455 10.9631 0.441517 11.2022L2.10245 12.8631C2.4837 13.2459 3.01027 13.4631 3.55089 13.4631C3.66495 13.4631 3.77433 13.4538 3.88214 13.435C5.98839 13.0881 8.07745 11.9678 9.76339 10.2834C11.4478 8.60063 12.5665 6.51313 12.9181 4.40063C13.0243 3.75532 12.8103 3.09126 12.3446 2.62251Z" fill="white"/>
</svg>
